<?xml version="1.0" standalone="no"?>
<!DOCTYPE svg PUBLIC "-//W3C//DTD SVG 20010904//EN"
 "http://www.w3.org/TR/2001/REC-SVG-20010904/DTD/svg10.dtd">
<svg version="1.0" xmlns="http://www.w3.org/2000/svg"
 width="688.000000pt" height="362.000000pt" viewBox="0 0 688.000000 362.000000"
 preserveAspectRatio="xMidYMid meet">

<g transform="translate(0.000000,362.000000) scale(0.100000,-0.100000)"
fill="#000000" stroke="none">
<path d="M1187 3304 c-297 -46 -553 -188 -734 -408 -71 -86 -133 -176 -148
-217 -4 -12 2 -20 22 -27 15 -6 113 -49 217 -96 104 -47 191 -84 194 -82 2 2
12 40 23 83 108 427 285 657 527 681 162 17 271 -17 356 -109 66 -71 92 -136
108 -268 9 -81 8 -115 -5 -211 -23 -153 -62 -261 -143 -387 l-34 -53 273 0
273 0 48 57 c219 261 186 643 -74 847 -202 159 -585 240 -903 190z"/>
<path d="M4995 3313 c-203 -24 -333 -56 -484 -121 -373 -162 -672 -510 -795
-930 l-15 -52 302 2 302 3 3 35 c13 155 82 426 142 556 104 226 276 376 478
419 107 22 290 20 387 -5 210 -54 386 -223 480 -461 53 -132 125 -437 125
-525 l0 -24 304 0 305 0 -36 107 c-43 126 -129 301 -198 398 -69 98 -230 261
-324 328 -151 109 -336 193 -517 235 -148 35 -342 49 -459 35z"/>
<path d="M1934 1318 c18 -86 26 -149 26 -215 0 -370 -187 -649 -492 -733 -273
-75 -626 -18 -855 138 -66 45 -174 154 -222 225 -65 96 -129 256 -164 407 -12
53 -13 55 -42 52 -16 -2 -31 -5 -32 -6 -4 -4 39 -198 57 -259 151 -495 576
-768 1196 -767 162 0 248 10 365 40 200 51 360 134 494 253 164 146 266 352
283 567 8 88 1 237 -12 298 l-8 32 -300 0 -300 0 6 -32z"/>
<path d="M3686 1323 c14 -61 68 -223 99 -298 123 -297 376 -569 666 -715 198
-100 414 -150 657 -150 195 0 345 25 512 85 271 97 508 278 676 517 104 147
217 405 240 546 l7 42 -305 0 -304 0 -13 -107 c-29 -249 -104 -512 -189 -658
-95 -163 -252 -287 -422 -332 -89 -24 -309 -24 -399 0 -148 40 -291 140 -373
259 -121 179 -211 466 -234 751 l-7 87 -309 0 -308 0 6 -27z"/>
<path d="M2907 572 l-137 -137 137 -137 138 -137 80 78 c44 42 106 104 137
137 l57 60 -137 137 -137 137 -138 -138z"/>
</g>
</svg>
